<?xml version="1.0" standalone="no"?><!DOCTYPE svg PUBLIC "-//W3C//DTD SVG 1.1//EN" "http://www.w3.org/Graphics/SVG/1.1/DTD/svg11.dtd"><svg t="1730981858155" class="icon" viewBox="0 0 1024 1024" version="1.1" xmlns="http://www.w3.org/2000/svg" p-id="2478" xmlns:xlink="http://www.w3.org/1999/xlink" width="200" height="200"><path d="M869.12 832H154.88A74.88 74.88 0 0 1 80 757.12V266.88A74.88 74.88 0 0 1 154.88 192h714.24A74.88 74.88 0 0 1 944 266.88v490.24A74.88 74.88 0 0 1 869.12 832zM154.88 256A10.88 10.88 0 0 0 144 266.88v490.24A10.88 10.88 0 0 0 154.88 768h714.24A10.88 10.88 0 0 0 880 757.12V266.88A10.88 10.88 0 0 0 869.12 256z" p-id="2479"></path><path d="M880 241.28l-386.24 278.4L144 249.92v80.96l329.6 254.08a32 32 0 0 0 19.52 6.72A32 32 0 0 0 512 585.6L880 320z" p-id="2480"></path></svg>